<svg width="26" height="26" viewBox="0 0 26 26" fill="none" xmlns="http://www.w3.org/2000/svg">
<path d="M13 0C13.0508 0 13.1016 0 13.1016 0C13.7109 0 14.0156 0.660156 13.7617 1.16797L9.03906 9.34375C8.68359 9.90234 7.92188 9.90234 7.61719 9.34375L4.51953 4.01172C4.31641 3.65625 4.41797 3.25 4.67188 2.99609C6.95703 1.11719 9.85156 0 13 0ZM0 13C0 10.6133 0.660156 8.32812 1.77734 6.39844C2.08203 5.89062 2.79297 5.94141 3.09766 6.44922L7.82031 14.625C8.17578 15.1836 7.76953 15.8438 7.16016 15.8438H0.964844C0.609375 15.8438 0.253906 15.5898 0.203125 15.1836C0.0507812 14.4727 0 13.7617 0 13ZM9.44531 24.832C9.24219 25.1875 8.88672 25.3398 8.53125 25.1875C5.58594 24.1211 3.19922 22.0391 1.67578 19.3984C1.42188 18.8906 1.77734 18.2812 2.38672 18.2812H11.832C12.4414 18.2812 12.8477 18.9414 12.543 19.5L9.44531 24.832ZM13 26C12.9492 26 12.9492 26 12.8984 26C12.2891 26 11.9844 25.3398 12.2383 24.832L17.0117 16.6562C17.3164 16.0977 18.0781 16.0977 18.3828 16.6562L21.4805 21.9883C21.6836 22.3438 21.6328 22.75 21.3281 23.0039C19.043 24.8828 16.1484 26 13 26ZM26 13C26 15.4375 25.3398 17.6719 24.2227 19.6016C23.918 20.1094 23.207 20.0586 22.9023 19.5508L18.1797 11.375C17.8242 10.8164 18.2305 10.1562 18.8906 10.1562H25.0352C25.4414 10.1562 25.7461 10.4102 25.7969 10.8164C25.9492 11.5273 26 12.2383 26 13ZM16.5547 1.16797C16.7578 0.8125 17.1641 0.660156 17.5195 0.8125C20.4141 1.87891 22.8008 3.96094 24.3242 6.60156C24.6289 7.10938 24.2227 7.71875 23.6133 7.71875H14.168C13.5586 7.71875 13.1523 7.05859 13.457 6.5L16.5547 1.16797Z" fill="white"/>
</svg>
