<svg width="270" height="193" viewBox="0 0 270 193" fill="none" xmlns="http://www.w3.org/2000/svg">
<g filter="url(#filter0_d_20_50)">
<path d="M5 143L5 187L49 187" stroke="white" stroke-width="2" stroke-linecap="round"/>
<path d="M265 143L265 187L221 187" stroke="white" stroke-width="2" stroke-linecap="round"/>
<path d="M5 48L5 4L49 4" stroke="white" stroke-width="2" stroke-linecap="round"/>
<path d="M265 48L265 4L221 4" stroke="white" stroke-width="2" stroke-linecap="round"/>
<path d="M29.0017 136.955L29.0017 166.063L58.1094 166.063" stroke="white" stroke-linecap="round"/>
<path d="M241 136.953L241 166.061L211.893 166.061" stroke="white" stroke-linecap="round"/>
<path d="M28.9997 54.1094L28.9997 25.0017L58.1074 25.0017" stroke="white" stroke-linecap="round"/>
<path d="M241 54.1074L241 24.9997L211.893 24.9997" stroke="white" stroke-linecap="round"/>
<circle cx="135" cy="96" r="8.5" stroke="white"/>
<path d="M83.8523 18.1193C83.2898 18.1193 82.7884 18.0227 82.348 17.8295C81.9105 17.6364 81.5625 17.3679 81.304 17.0241C81.0483 16.6776 80.9091 16.2756 80.8864 15.8182H81.9602C81.983 16.0994 82.0795 16.3423 82.25 16.5469C82.4205 16.7486 82.6435 16.9048 82.919 17.0156C83.1946 17.1264 83.5 17.1818 83.8352 17.1818C84.2102 17.1818 84.5426 17.1165 84.8324 16.9858C85.1222 16.8551 85.3494 16.6733 85.5142 16.4403C85.679 16.2074 85.7614 15.9375 85.7614 15.6307C85.7614 15.3097 85.6818 15.027 85.5227 14.7827C85.3636 14.5355 85.1307 14.3423 84.8239 14.2031C84.517 14.0639 84.142 13.9943 83.6989 13.9943H83V13.0568H83.6989C84.0455 13.0568 84.3494 12.9943 84.6108 12.8693C84.875 12.7443 85.081 12.5682 85.2287 12.3409C85.3793 12.1136 85.4545 11.8466 85.4545 11.5398C85.4545 11.2443 85.3892 10.9872 85.2585 10.7685C85.1278 10.5497 84.9432 10.3793 84.7045 10.2571C84.4688 10.1349 84.1903 10.0739 83.8693 10.0739C83.5682 10.0739 83.2841 10.1293 83.017 10.2401C82.7528 10.348 82.5369 10.5057 82.3693 10.7131C82.2017 10.9176 82.1108 11.1648 82.0966 11.4545H81.0739C81.0909 10.9972 81.2287 10.5966 81.4872 10.2528C81.7457 9.90625 82.0838 9.63636 82.5014 9.44318C82.9219 9.25 83.3835 9.15341 83.8864 9.15341C84.4261 9.15341 84.8892 9.26278 85.2756 9.48153C85.6619 9.69744 85.9588 9.98295 86.1662 10.3381C86.3736 10.6932 86.4773 11.0767 86.4773 11.4886C86.4773 11.9801 86.348 12.3991 86.0895 12.7457C85.8338 13.0923 85.4858 13.3324 85.0455 13.4659V13.5341C85.5966 13.625 86.027 13.8594 86.3366 14.2372C86.6463 14.6122 86.8011 15.0767 86.8011 15.6307C86.8011 16.1051 86.6719 16.5312 86.4134 16.9091C86.1577 17.2841 85.8082 17.5795 85.3651 17.7955C84.9219 18.0114 84.4176 18.1193 83.8523 18.1193ZM89.0245 18.0682C88.8143 18.0682 88.6339 17.9929 88.4833 17.8423C88.3327 17.6918 88.2575 17.5114 88.2575 17.3011C88.2575 17.0909 88.3327 16.9105 88.4833 16.7599C88.6339 16.6094 88.8143 16.5341 89.0245 16.5341C89.2347 16.5341 89.4151 16.6094 89.5657 16.7599C89.7163 16.9105 89.7915 17.0909 89.7915 17.3011C89.7915 17.4403 89.756 17.5682 89.685 17.6847C89.6168 17.8011 89.5245 17.8949 89.408 17.9659C89.2944 18.0341 89.1665 18.0682 89.0245 18.0682ZM92.3292 18.0682C92.119 18.0682 91.9386 17.9929 91.788 17.8423C91.6374 17.6918 91.5621 17.5114 91.5621 17.3011C91.5621 17.0909 91.6374 16.9105 91.788 16.7599C91.9386 16.6094 92.119 16.5341 92.3292 16.5341C92.5394 16.5341 92.7198 16.6094 92.8704 16.7599C93.021 16.9105 93.0962 17.0909 93.0962 17.3011C93.0962 17.4403 93.0607 17.5682 92.9897 17.6847C92.9215 17.8011 92.8292 17.8949 92.7127 17.9659C92.5991 18.0341 92.4712 18.0682 92.3292 18.0682ZM95.6339 18.0682C95.4237 18.0682 95.2433 17.9929 95.0927 17.8423C94.9421 17.6918 94.8668 17.5114 94.8668 17.3011C94.8668 17.0909 94.9421 16.9105 95.0927 16.7599C95.2433 16.6094 95.4237 16.5341 95.6339 16.5341C95.8441 16.5341 96.0245 16.6094 96.1751 16.7599C96.3256 16.9105 96.4009 17.0909 96.4009 17.3011C96.4009 17.4403 96.3654 17.5682 96.2944 17.6847C96.2262 17.8011 96.1339 17.8949 96.0174 17.9659C95.9038 18.0341 95.7759 18.0682 95.6339 18.0682ZM98.1886 18V17.233L101.069 14.0795C101.407 13.7102 101.686 13.3892 101.904 13.1165C102.123 12.8409 102.285 12.5824 102.39 12.3409C102.498 12.0966 102.552 11.8409 102.552 11.5739C102.552 11.267 102.478 11.0014 102.331 10.777C102.186 10.5526 101.987 10.3793 101.734 10.2571C101.481 10.1349 101.197 10.0739 100.882 10.0739C100.547 10.0739 100.254 10.1435 100.004 10.2827C99.7567 10.419 99.565 10.6108 99.4286 10.858C99.2951 11.1051 99.2283 11.3949 99.2283 11.7273H98.2227C98.2227 11.2159 98.3406 10.767 98.5763 10.3807C98.8121 9.99432 99.1332 9.69318 99.5394 9.47727C99.9485 9.26136 100.407 9.15341 100.916 9.15341C101.427 9.15341 101.88 9.26136 102.275 9.47727C102.67 9.69318 102.98 9.98437 103.204 10.3509C103.429 10.7173 103.541 11.125 103.541 11.5739C103.541 11.8949 103.483 12.2088 103.366 12.5156C103.252 12.8196 103.054 13.1591 102.77 13.5341C102.488 13.9062 102.098 14.3608 101.598 14.8977L99.6374 16.9943V17.0625H103.694V18H98.1886ZM106.204 18.0682C105.994 18.0682 105.814 17.9929 105.663 17.8423C105.512 17.6918 105.437 17.5114 105.437 17.3011C105.437 17.0909 105.512 16.9105 105.663 16.7599C105.814 16.6094 105.994 16.5341 106.204 16.5341C106.414 16.5341 106.595 16.6094 106.745 16.7599C106.896 16.9105 106.971 17.0909 106.971 17.3011C106.971 17.4403 106.936 17.5682 106.865 17.6847C106.797 17.8011 106.704 17.8949 106.588 17.9659C106.474 18.0341 106.346 18.0682 106.204 18.0682ZM109.509 18.0682C109.299 18.0682 109.118 17.9929 108.968 17.8423C108.817 17.6918 108.742 17.5114 108.742 17.3011C108.742 17.0909 108.817 16.9105 108.968 16.7599C109.118 16.6094 109.299 16.5341 109.509 16.5341C109.719 16.5341 109.9 16.6094 110.05 16.7599C110.201 16.9105 110.276 17.0909 110.276 17.3011C110.276 17.4403 110.24 17.5682 110.169 17.6847C110.101 17.8011 110.009 17.8949 109.892 17.9659C109.779 18.0341 109.651 18.0682 109.509 18.0682ZM112.814 18.0682C112.603 18.0682 112.423 17.9929 112.272 17.8423C112.122 17.6918 112.047 17.5114 112.047 17.3011C112.047 17.0909 112.122 16.9105 112.272 16.7599C112.423 16.6094 112.603 16.5341 112.814 16.5341C113.024 16.5341 113.204 16.6094 113.355 16.7599C113.505 16.9105 113.581 17.0909 113.581 17.3011C113.581 17.4403 113.545 17.5682 113.474 17.6847C113.406 17.8011 113.314 17.8949 113.197 17.9659C113.083 18.0341 112.956 18.0682 112.814 18.0682ZM117.393 9.27273V18H116.337V10.3807H116.286L114.155 11.7955V10.7216L116.337 9.27273H117.393ZM120.138 18.0682C119.928 18.0682 119.747 17.9929 119.597 17.8423C119.446 17.6918 119.371 17.5114 119.371 17.3011C119.371 17.0909 119.446 16.9105 119.597 16.7599C119.747 16.6094 119.928 16.5341 120.138 16.5341C120.348 16.5341 120.528 16.6094 120.679 16.7599C120.83 16.9105 120.905 17.0909 120.905 17.3011C120.905 17.4403 120.869 17.5682 120.798 17.6847C120.73 17.8011 120.638 17.8949 120.521 17.9659C120.408 18.0341 120.28 18.0682 120.138 18.0682ZM123.442 18.0682C123.232 18.0682 123.052 17.9929 122.901 17.8423C122.751 17.6918 122.675 17.5114 122.675 17.3011C122.675 17.0909 122.751 16.9105 122.901 16.7599C123.052 16.6094 123.232 16.5341 123.442 16.5341C123.653 16.5341 123.833 16.6094 123.984 16.7599C124.134 16.9105 124.21 17.0909 124.21 17.3011C124.21 17.4403 124.174 17.5682 124.103 17.6847C124.035 17.8011 123.942 17.8949 123.826 17.9659C123.712 18.0341 123.585 18.0682 123.442 18.0682ZM126.747 18.0682C126.537 18.0682 126.357 17.9929 126.206 17.8423C126.055 17.6918 125.98 17.5114 125.98 17.3011C125.98 17.0909 126.055 16.9105 126.206 16.7599C126.357 16.6094 126.537 16.5341 126.747 16.5341C126.957 16.5341 127.138 16.6094 127.288 16.7599C127.439 16.9105 127.514 17.0909 127.514 17.3011C127.514 17.4403 127.479 17.5682 127.408 17.6847C127.339 17.8011 127.247 17.8949 127.131 17.9659C127.017 18.0341 126.889 18.0682 126.747 18.0682Z" fill="white"/>
<path d="M142.653 18.0682C142.443 18.0682 142.263 17.9929 142.112 17.8423C141.962 17.6918 141.886 17.5114 141.886 17.3011C141.886 17.0909 141.962 16.9105 142.112 16.7599C142.263 16.6094 142.443 16.5341 142.653 16.5341C142.864 16.5341 143.044 16.6094 143.195 16.7599C143.345 16.9105 143.42 17.0909 143.42 17.3011C143.42 17.4403 143.385 17.5682 143.314 17.6847C143.246 17.8011 143.153 17.8949 143.037 17.9659C142.923 18.0341 142.795 18.0682 142.653 18.0682ZM145.958 18.0682C145.748 18.0682 145.567 17.9929 145.417 17.8423C145.266 17.6918 145.191 17.5114 145.191 17.3011C145.191 17.0909 145.266 16.9105 145.417 16.7599C145.567 16.6094 145.748 16.5341 145.958 16.5341C146.168 16.5341 146.349 16.6094 146.499 16.7599C146.65 16.9105 146.725 17.0909 146.725 17.3011C146.725 17.4403 146.69 17.5682 146.619 17.6847C146.55 17.8011 146.458 17.8949 146.342 17.9659C146.228 18.0341 146.1 18.0682 145.958 18.0682ZM149.263 18.0682C149.053 18.0682 148.872 17.9929 148.722 17.8423C148.571 17.6918 148.496 17.5114 148.496 17.3011C148.496 17.0909 148.571 16.9105 148.722 16.7599C148.872 16.6094 149.053 16.5341 149.263 16.5341C149.473 16.5341 149.653 16.6094 149.804 16.7599C149.955 16.9105 150.03 17.0909 150.03 17.3011C150.03 17.4403 149.994 17.5682 149.923 17.6847C149.855 17.8011 149.763 17.8949 149.646 17.9659C149.533 18.0341 149.405 18.0682 149.263 18.0682ZM153.843 9.27273V18H152.786V10.3807H152.735L150.604 11.7955V10.7216L152.786 9.27273H153.843ZM156.587 18.0682C156.377 18.0682 156.196 17.9929 156.046 17.8423C155.895 17.6918 155.82 17.5114 155.82 17.3011C155.82 17.0909 155.895 16.9105 156.046 16.7599C156.196 16.6094 156.377 16.5341 156.587 16.5341C156.797 16.5341 156.978 16.6094 157.128 16.7599C157.279 16.9105 157.354 17.0909 157.354 17.3011C157.354 17.4403 157.319 17.5682 157.248 17.6847C157.179 17.8011 157.087 17.8949 156.971 17.9659C156.857 18.0341 156.729 18.0682 156.587 18.0682ZM159.892 18.0682C159.681 18.0682 159.501 17.9929 159.35 17.8423C159.2 17.6918 159.125 17.5114 159.125 17.3011C159.125 17.0909 159.2 16.9105 159.35 16.7599C159.501 16.6094 159.681 16.5341 159.892 16.5341C160.102 16.5341 160.282 16.6094 160.433 16.7599C160.583 16.9105 160.659 17.0909 160.659 17.3011C160.659 17.4403 160.623 17.5682 160.552 17.6847C160.484 17.8011 160.392 17.8949 160.275 17.9659C160.162 18.0341 160.034 18.0682 159.892 18.0682ZM163.196 18.0682C162.986 18.0682 162.806 17.9929 162.655 17.8423C162.505 17.6918 162.429 17.5114 162.429 17.3011C162.429 17.0909 162.505 16.9105 162.655 16.7599C162.806 16.6094 162.986 16.5341 163.196 16.5341C163.407 16.5341 163.587 16.6094 163.738 16.7599C163.888 16.9105 163.963 17.0909 163.963 17.3011C163.963 17.4403 163.928 17.5682 163.857 17.6847C163.789 17.8011 163.696 17.8949 163.58 17.9659C163.466 18.0341 163.338 18.0682 163.196 18.0682ZM165.751 18V17.233L168.632 14.0795C168.97 13.7102 169.248 13.3892 169.467 13.1165C169.686 12.8409 169.848 12.5824 169.953 12.3409C170.061 12.0966 170.115 11.8409 170.115 11.5739C170.115 11.267 170.041 11.0014 169.893 10.777C169.748 10.5526 169.549 10.3793 169.297 10.2571C169.044 10.1349 168.76 10.0739 168.444 10.0739C168.109 10.0739 167.816 10.1435 167.566 10.2827C167.319 10.419 167.127 10.6108 166.991 10.858C166.858 11.1051 166.791 11.3949 166.791 11.7273H165.785C165.785 11.2159 165.903 10.767 166.139 10.3807C166.375 9.99432 166.696 9.69318 167.102 9.47727C167.511 9.26136 167.97 9.15341 168.478 9.15341C168.99 9.15341 169.443 9.26136 169.838 9.47727C170.233 9.69318 170.542 9.98437 170.767 10.3509C170.991 10.7173 171.103 11.125 171.103 11.5739C171.103 11.8949 171.045 12.2088 170.929 12.5156C170.815 12.8196 170.616 13.1591 170.332 13.5341C170.051 13.9062 169.66 14.3608 169.16 14.8977L167.2 16.9943V17.0625H171.257V18H165.751ZM173.767 18.0682C173.556 18.0682 173.376 17.9929 173.225 17.8423C173.075 17.6918 173 17.5114 173 17.3011C173 17.0909 173.075 16.9105 173.225 16.7599C173.376 16.6094 173.556 16.5341 173.767 16.5341C173.977 16.5341 174.157 16.6094 174.308 16.7599C174.458 16.9105 174.534 17.0909 174.534 17.3011C174.534 17.4403 174.498 17.5682 174.427 17.6847C174.359 17.8011 174.267 17.8949 174.15 17.9659C174.037 18.0341 173.909 18.0682 173.767 18.0682ZM177.071 18.0682C176.861 18.0682 176.681 17.9929 176.53 17.8423C176.38 17.6918 176.304 17.5114 176.304 17.3011C176.304 17.0909 176.38 16.9105 176.53 16.7599C176.681 16.6094 176.861 16.5341 177.071 16.5341C177.282 16.5341 177.462 16.6094 177.613 16.7599C177.763 16.9105 177.838 17.0909 177.838 17.3011C177.838 17.4403 177.803 17.5682 177.732 17.6847C177.664 17.8011 177.571 17.8949 177.455 17.9659C177.341 18.0341 177.213 18.0682 177.071 18.0682ZM180.376 18.0682C180.166 18.0682 179.985 17.9929 179.835 17.8423C179.684 17.6918 179.609 17.5114 179.609 17.3011C179.609 17.0909 179.684 16.9105 179.835 16.7599C179.985 16.6094 180.166 16.5341 180.376 16.5341C180.586 16.5341 180.767 16.6094 180.917 16.7599C181.068 16.9105 181.143 17.0909 181.143 17.3011C181.143 17.4403 181.108 17.5682 181.037 17.6847C180.968 17.8011 180.876 17.8949 180.76 17.9659C180.646 18.0341 180.518 18.0682 180.376 18.0682ZM185.551 18.1193C184.989 18.1193 184.488 18.0227 184.047 17.8295C183.61 17.6364 183.262 17.3679 183.003 17.0241C182.748 16.6776 182.608 16.2756 182.586 15.8182H183.659C183.682 16.0994 183.779 16.3423 183.949 16.5469C184.12 16.7486 184.343 16.9048 184.618 17.0156C184.894 17.1264 185.199 17.1818 185.534 17.1818C185.909 17.1818 186.242 17.1165 186.532 16.9858C186.821 16.8551 187.049 16.6733 187.213 16.4403C187.378 16.2074 187.461 15.9375 187.461 15.6307C187.461 15.3097 187.381 15.027 187.222 14.7827C187.063 14.5355 186.83 14.3423 186.523 14.2031C186.216 14.0639 185.841 13.9943 185.398 13.9943H184.699V13.0568H185.398C185.745 13.0568 186.049 12.9943 186.31 12.8693C186.574 12.7443 186.78 12.5682 186.928 12.3409C187.078 12.1136 187.154 11.8466 187.154 11.5398C187.154 11.2443 187.088 10.9872 186.958 10.7685C186.827 10.5497 186.642 10.3793 186.404 10.2571C186.168 10.1349 185.89 10.0739 185.569 10.0739C185.267 10.0739 184.983 10.1293 184.716 10.2401C184.452 10.348 184.236 10.5057 184.069 10.7131C183.901 10.9176 183.81 11.1648 183.796 11.4545H182.773C182.79 10.9972 182.928 10.5966 183.186 10.2528C183.445 9.90625 183.783 9.63636 184.201 9.44318C184.621 9.25 185.083 9.15341 185.586 9.15341C186.125 9.15341 186.588 9.26278 186.975 9.48153C187.361 9.69744 187.658 9.98295 187.865 10.3381C188.073 10.6932 188.176 11.0767 188.176 11.4886C188.176 11.9801 188.047 12.3991 187.789 12.7457C187.533 13.0923 187.185 13.3324 186.745 13.4659V13.5341C187.296 13.625 187.726 13.8594 188.036 14.2372C188.346 14.6122 188.5 15.0767 188.5 15.6307C188.5 16.1051 188.371 16.5312 188.113 16.9091C187.857 17.2841 187.507 17.5795 187.064 17.7955C186.621 18.0114 186.117 18.1193 185.551 18.1193Z" fill="white"/>
<path d="M132 9C132 8.44772 132.448 8 133 8H138C138.552 8 139 8.44772 139 9V16.6243C139 16.8665 138.912 17.1005 138.753 17.2828L136.253 20.1399C135.854 20.5952 135.146 20.5952 134.747 20.1399L132.247 17.2828C132.088 17.1005 132 16.8665 132 16.6243V9Z" fill="white"/>
<path d="M81.3097 173.727V181H80.429V174.651H80.3864L78.6108 175.83V174.935L80.429 173.727H81.3097ZM83.4013 181V180.361L85.8018 177.733C86.0836 177.425 86.3156 177.158 86.4979 176.93C86.6802 176.701 86.8151 176.485 86.9027 176.284C86.9927 176.08 87.0376 175.867 87.0376 175.645C87.0376 175.389 86.9761 175.168 86.853 174.981C86.7322 174.794 86.5665 174.649 86.3558 174.548C86.1451 174.446 85.9084 174.395 85.6456 174.395C85.3662 174.395 85.1224 174.453 84.9141 174.569C84.7081 174.683 84.5483 174.842 84.4347 175.048C84.3234 175.254 84.2678 175.496 84.2678 175.773H83.4297C83.4297 175.347 83.5279 174.973 83.7244 174.651C83.9209 174.329 84.1884 174.078 84.527 173.898C84.8679 173.718 85.2502 173.628 85.674 173.628C86.1001 173.628 86.4777 173.718 86.8068 173.898C87.1359 174.078 87.3939 174.32 87.581 174.626C87.768 174.931 87.8615 175.271 87.8615 175.645C87.8615 175.912 87.813 176.174 87.7159 176.43C87.6212 176.683 87.4555 176.966 87.2188 177.278C86.9844 177.589 86.6589 177.967 86.2422 178.415L84.6087 180.162V180.219H87.9893V181H83.4013ZM91.7287 181.099C91.312 181.099 90.9368 181.017 90.603 180.851C90.2692 180.685 90.0017 180.458 89.8004 180.169C89.5992 179.88 89.4891 179.551 89.4702 179.182H90.3224C90.3556 179.511 90.5047 179.783 90.7699 179.999C91.0374 180.212 91.357 180.318 91.7287 180.318C92.027 180.318 92.2921 180.248 92.5241 180.109C92.7585 179.969 92.942 179.777 93.0746 179.533C93.2095 179.287 93.277 179.009 93.277 178.699C93.277 178.382 93.2071 178.099 93.0675 177.85C92.9302 177.599 92.7408 177.402 92.4993 177.257C92.2578 177.113 91.982 177.039 91.6719 177.037C91.4493 177.035 91.2209 177.069 90.9865 177.14C90.7521 177.209 90.5592 177.297 90.4077 177.406L89.5838 177.307L90.0241 173.727H93.8026V174.509H90.7628L90.5071 176.653H90.5497C90.6989 176.535 90.8859 176.437 91.1108 176.359C91.3357 176.281 91.5701 176.241 91.8139 176.241C92.259 176.241 92.6555 176.348 93.0036 176.561C93.3539 176.772 93.6286 177.061 93.8274 177.428C94.0286 177.795 94.1293 178.214 94.1293 178.685C94.1293 179.149 94.0251 179.563 93.8168 179.928C93.6108 180.29 93.3267 180.576 92.9645 180.787C92.6023 180.995 92.1903 181.099 91.7287 181.099Z" fill="white"/>
<path d="M114.881 181V173.727H119.241V174.509H115.761V176.966H118.915V177.747H115.761V181H114.881ZM122.895 181.099C122.478 181.099 122.103 181.017 121.769 180.851C121.435 180.685 121.168 180.458 120.966 180.169C120.765 179.88 120.655 179.551 120.636 179.182H121.488C121.522 179.511 121.671 179.783 121.936 179.999C122.203 180.212 122.523 180.318 122.895 180.318C123.193 180.318 123.458 180.248 123.69 180.109C123.925 179.969 124.108 179.777 124.241 179.533C124.376 179.287 124.443 179.009 124.443 178.699C124.443 178.382 124.373 178.099 124.233 177.85C124.096 177.599 123.907 177.402 123.665 177.257C123.424 177.113 123.148 177.039 122.838 177.037C122.615 177.035 122.387 177.069 122.153 177.14C121.918 177.209 121.725 177.297 121.574 177.406L120.75 177.307L121.19 173.727H124.969V174.509H121.929L121.673 176.653H121.716C121.865 176.535 122.052 176.437 122.277 176.359C122.502 176.281 122.736 176.241 122.98 176.241C123.425 176.241 123.822 176.348 124.17 176.561C124.52 176.772 124.795 177.061 124.993 177.428C125.195 177.795 125.295 178.214 125.295 178.685C125.295 179.149 125.191 179.563 124.983 179.928C124.777 180.29 124.493 180.576 124.131 180.787C123.768 180.995 123.356 181.099 122.895 181.099ZM127.058 181.057C126.882 181.057 126.732 180.994 126.607 180.869C126.481 180.743 126.418 180.593 126.418 180.418C126.418 180.242 126.481 180.092 126.607 179.967C126.732 179.841 126.882 179.778 127.058 179.778C127.233 179.778 127.383 179.841 127.509 179.967C127.634 180.092 127.697 180.242 127.697 180.418C127.697 180.534 127.667 180.64 127.608 180.737C127.551 180.834 127.474 180.912 127.377 180.972C127.282 181.028 127.176 181.057 127.058 181.057ZM131.347 181.099C131.049 181.095 130.751 181.038 130.452 180.929C130.154 180.82 129.882 180.637 129.636 180.379C129.389 180.118 129.192 179.767 129.043 179.324C128.893 178.879 128.819 178.32 128.819 177.648C128.819 177.004 128.879 176.433 129 175.936C129.121 175.437 129.296 175.016 129.526 174.675C129.755 174.332 130.032 174.072 130.357 173.894C130.683 173.717 131.051 173.628 131.461 173.628C131.868 173.628 132.23 173.71 132.548 173.873C132.867 174.034 133.128 174.259 133.329 174.548C133.53 174.836 133.66 175.169 133.719 175.545H132.853C132.772 175.219 132.616 174.948 132.384 174.732C132.152 174.517 131.844 174.409 131.461 174.409C130.897 174.409 130.454 174.654 130.129 175.144C129.807 175.634 129.645 176.322 129.643 177.207H129.7C129.832 177.006 129.99 176.835 130.172 176.692C130.357 176.548 130.56 176.437 130.783 176.359C131.005 176.281 131.241 176.241 131.489 176.241C131.906 176.241 132.287 176.346 132.633 176.554C132.978 176.76 133.255 177.045 133.464 177.41C133.672 177.772 133.776 178.188 133.776 178.656C133.776 179.106 133.676 179.518 133.474 179.892C133.273 180.264 132.99 180.56 132.626 180.78C132.263 180.998 131.837 181.104 131.347 181.099ZM131.347 180.318C131.646 180.318 131.913 180.244 132.15 180.094C132.389 179.945 132.577 179.745 132.714 179.494C132.854 179.243 132.924 178.964 132.924 178.656C132.924 178.356 132.857 178.082 132.722 177.836C132.589 177.587 132.406 177.39 132.171 177.243C131.939 177.096 131.674 177.023 131.376 177.023C131.151 177.023 130.941 177.068 130.747 177.158C130.553 177.245 130.383 177.366 130.236 177.52C130.091 177.674 129.978 177.85 129.895 178.049C129.812 178.246 129.771 178.453 129.771 178.67C129.771 178.959 129.838 179.229 129.973 179.48C130.11 179.731 130.297 179.933 130.534 180.087C130.773 180.241 131.044 180.318 131.347 180.318Z" fill="white"/>
<path d="M155.761 173.727V181H154.881V173.727H155.761ZM161.504 175.545C161.462 175.186 161.289 174.906 160.986 174.707C160.683 174.509 160.311 174.409 159.871 174.409C159.549 174.409 159.267 174.461 159.026 174.565C158.787 174.67 158.6 174.813 158.465 174.995C158.332 175.177 158.266 175.384 158.266 175.616C158.266 175.811 158.312 175.978 158.404 176.117C158.499 176.254 158.62 176.369 158.767 176.462C158.913 176.552 159.067 176.626 159.228 176.685C159.389 176.742 159.537 176.788 159.672 176.824L160.411 177.023C160.6 177.072 160.811 177.141 161.043 177.229C161.277 177.316 161.501 177.436 161.714 177.587C161.929 177.737 162.107 177.928 162.247 178.163C162.386 178.397 162.456 178.685 162.456 179.026C162.456 179.419 162.353 179.774 162.147 180.091C161.944 180.408 161.645 180.66 161.252 180.847C160.862 181.034 160.387 181.128 159.828 181.128C159.307 181.128 158.856 181.044 158.475 180.876C158.097 180.708 157.798 180.473 157.58 180.173C157.365 179.872 157.243 179.523 157.215 179.125H158.124C158.147 179.4 158.24 179.627 158.401 179.807C158.564 179.984 158.77 180.117 159.019 180.205C159.27 180.29 159.539 180.332 159.828 180.332C160.164 180.332 160.466 180.278 160.734 180.169C161.001 180.058 161.213 179.904 161.369 179.707C161.526 179.509 161.604 179.277 161.604 179.011C161.604 178.77 161.536 178.573 161.401 178.422C161.267 178.27 161.089 178.147 160.869 178.053C160.649 177.958 160.411 177.875 160.155 177.804L159.26 177.548C158.692 177.385 158.242 177.152 157.911 176.849C157.579 176.546 157.414 176.149 157.414 175.659C157.414 175.252 157.524 174.897 157.744 174.594C157.966 174.288 158.265 174.052 158.639 173.884C159.015 173.713 159.435 173.628 159.899 173.628C160.368 173.628 160.785 173.712 161.149 173.88C161.514 174.046 161.803 174.273 162.016 174.562C162.231 174.851 162.345 175.179 162.357 175.545H161.504ZM170.04 177.364C170.04 178.131 169.902 178.794 169.625 179.352C169.348 179.911 168.968 180.342 168.485 180.645C168.002 180.948 167.451 181.099 166.83 181.099C166.21 181.099 165.658 180.948 165.175 180.645C164.692 180.342 164.313 179.911 164.036 179.352C163.759 178.794 163.62 178.131 163.62 177.364C163.62 176.597 163.759 175.934 164.036 175.375C164.313 174.816 164.692 174.385 165.175 174.082C165.658 173.779 166.21 173.628 166.83 173.628C167.451 173.628 168.002 173.779 168.485 174.082C168.968 174.385 169.348 174.816 169.625 175.375C169.902 175.934 170.04 176.597 170.04 177.364ZM169.188 177.364C169.188 176.734 169.083 176.202 168.872 175.769C168.664 175.336 168.381 175.008 168.023 174.786C167.668 174.563 167.271 174.452 166.83 174.452C166.39 174.452 165.991 174.563 165.634 174.786C165.278 175.008 164.996 175.336 164.785 175.769C164.576 176.202 164.472 176.734 164.472 177.364C164.472 177.993 164.576 178.525 164.785 178.958C164.996 179.391 165.278 179.719 165.634 179.942C165.991 180.164 166.39 180.276 166.83 180.276C167.271 180.276 167.668 180.164 168.023 179.942C168.381 179.719 168.664 179.391 168.872 178.958C169.083 178.525 169.188 177.993 169.188 177.364ZM174.036 179.509V178.784L177.232 173.727H177.757V174.849H177.402L174.987 178.67V178.727H179.291V179.509H174.036ZM177.459 181V179.288V178.951V173.727H178.297V181H177.459ZM182.994 181.099C182.459 181.099 182.003 180.954 181.627 180.663C181.251 180.369 180.963 179.944 180.764 179.388C180.565 178.829 180.466 178.154 180.466 177.364C180.466 176.578 180.565 175.906 180.764 175.35C180.965 174.791 181.254 174.365 181.631 174.072C182.009 173.776 182.464 173.628 182.994 173.628C183.524 173.628 183.978 173.776 184.354 174.072C184.733 174.365 185.022 174.791 185.221 175.35C185.422 175.906 185.523 176.578 185.523 177.364C185.523 178.154 185.423 178.829 185.224 179.388C185.025 179.944 184.738 180.369 184.361 180.663C183.985 180.954 183.529 181.099 182.994 181.099ZM182.994 180.318C183.524 180.318 183.936 180.062 184.23 179.551C184.523 179.04 184.67 178.311 184.67 177.364C184.67 176.734 184.603 176.198 184.468 175.755C184.335 175.312 184.144 174.975 183.893 174.743C183.644 174.511 183.345 174.395 182.994 174.395C182.469 174.395 182.058 174.654 181.762 175.173C181.466 175.689 181.318 176.419 181.318 177.364C181.318 177.993 181.384 178.528 181.517 178.969C181.649 179.409 181.84 179.744 182.089 179.974C182.34 180.203 182.641 180.318 182.994 180.318ZM189.244 181.099C188.709 181.099 188.253 180.954 187.877 180.663C187.501 180.369 187.213 179.944 187.014 179.388C186.815 178.829 186.716 178.154 186.716 177.364C186.716 176.578 186.815 175.906 187.014 175.35C187.215 174.791 187.504 174.365 187.881 174.072C188.259 173.776 188.714 173.628 189.244 173.628C189.774 173.628 190.228 173.776 190.604 174.072C190.983 174.365 191.272 174.791 191.471 175.35C191.672 175.906 191.773 176.578 191.773 177.364C191.773 178.154 191.673 178.829 191.474 179.388C191.275 179.944 190.988 180.369 190.611 180.663C190.235 180.954 189.779 181.099 189.244 181.099ZM189.244 180.318C189.774 180.318 190.186 180.062 190.48 179.551C190.773 179.04 190.92 178.311 190.92 177.364C190.92 176.734 190.853 176.198 190.718 175.755C190.585 175.312 190.394 174.975 190.143 174.743C189.894 174.511 189.595 174.395 189.244 174.395C188.719 174.395 188.308 174.654 188.012 175.173C187.716 175.689 187.568 176.419 187.568 177.364C187.568 177.993 187.634 178.528 187.767 178.969C187.899 179.409 188.09 179.744 188.339 179.974C188.59 180.203 188.891 180.318 189.244 180.318Z" fill="white"/>
</g>
<defs>
<filter id="filter0_d_20_50" x="0" y="0" width="270" height="193" filterUnits="userSpaceOnUse" color-interpolation-filters="sRGB">
<feFlood flood-opacity="0" result="BackgroundImageFix"/>
<feColorMatrix in="SourceAlpha" type="matrix" values="0 0 0 0 0 0 0 0 0 0 0 0 0 0 0 0 0 0 127 0" result="hardAlpha"/>
<feOffset dy="1"/>
<feGaussianBlur stdDeviation="2"/>
<feComposite in2="hardAlpha" operator="out"/>
<feColorMatrix type="matrix" values="0 0 0 0 0 0 0 0 0 0 0 0 0 0 0 0 0 0 0.25 0"/>
<feBlend mode="normal" in2="BackgroundImageFix" result="effect1_dropShadow_20_50"/>
<feBlend mode="normal" in="SourceGraphic" in2="effect1_dropShadow_20_50" result="shape"/>
</filter>
</defs>
</svg>
